<svg xmlns="http://www.w3.org/2000/svg" width="120" height="110" viewBox="0 0 120 110"><ellipse cx="62" cy="99" rx="45" ry="7" fill="#237c82" opacity=".24"/><path d="M26 51q5-29 31-27q18 1 20 22q29 3 32 25q3 25-37 28q-43 3-57-22q-9-17 11-26Z" fill="#f5dc65" stroke="#6d5934" stroke-width="4"/><circle cx="39" cy="39" r="21" fill="#fae878" stroke="#6d5934" stroke-width="4"/><path d="M19 43L3 50l18 7" fill="#e79434" stroke="#8c5a2e" stroke-width="3"/><circle cx="36" cy="35" r="3.5" fill="#2f2b25"/><path d="M64 61q18-9 30 7q-15 18-33 8" fill="#e5c451"/><path d="M106 78q8 13-6 20" fill="none" stroke="#f5dc65" stroke-width="8" stroke-linecap="round"/></svg>
