<svg xmlns="http://www.w3.org/2000/svg" width="200" height="150" viewBox="0 0 200 150"><ellipse cx="102" cy="135" rx="76" ry="10" fill="#31522f" opacity=".22"/><g stroke="#493528" stroke-width="5" stroke-linecap="round" stroke-linejoin="round"><path d="M59 104v31m28-29v29m55-32v32m25-39v38"/><path d="M46 54q37-26 100-13 34 7 36 36 1 26-34 34H76Q37 102 35 77q-1-13 11-23Z" fill="#b56c3d"/><path d="M49 52Q25 37 20 59v34q9 26 32 9l18-34Z" fill="#c98250"/><path d="m25 49-3-24 21 18m4 7 9-23 11 29" fill="#9e5835"/><path d="M43 39q27 12 35 36" fill="none" stroke="#3f2c23" stroke-width="11"/><path d="M177 55q18-19 18 4-1 25-22 37" fill="none" stroke="#3f2c23" stroke-width="11"/></g><circle cx="31" cy="67" r="4" fill="#241d18"/><path d="M21 88q13 7 28-1" fill="none" stroke="#6c3e2d" stroke-width="4"/><path d="M66 134h-18m48 0H77m82 0h-20m41-1h-20" stroke="#2d2622" stroke-width="7"/></svg>
