<svg xmlns="http://www.w3.org/2000/svg" width="120" height="120" viewBox="0 0 120 120"><path d="M60 108V23" stroke="#43863c" stroke-width="9" stroke-linecap="round"/><path d="M58 84Q25 67 22 36q29 7 38 39M62 72q29-22 34-51q-31 8-36 42M57 102Q35 94 30 76q20 1 29 17" fill="#55a848" stroke="#33733a" stroke-width="4"/><path d="M55 42q26-9 35 12q-2 36-23 43q-21-17-12-55Z" fill="#f3c83f" stroke="#9d742a" stroke-width="4"/><g stroke="#d69b2b" stroke-width="2"><path d="M58 52l25 32M61 43l27 32M53 62l22 30M84 49L58 82M89 59L64 91"/></g></svg>
