<svg xmlns="http://www.w3.org/2000/svg" width="120" height="120" viewBox="0 0 120 120"><path d="M59 107V37M59 59L32 45M60 68l29-18" fill="none" stroke="#397f3f" stroke-width="7" stroke-linecap="round"/><g fill="#4ea24d"><ellipse cx="31" cy="42" rx="19" ry="9" transform="rotate(22 31 42)"/><ellipse cx="89" cy="47" rx="19" ry="9" transform="rotate(-22 89 47)"/></g><g fill="#713a99" stroke="#472760" stroke-width="4"><path d="M22 51q18-11 31 4q2 32-24 43q-17-18-7-47Z"/><path d="M64 58q19-12 32 4q1 31-25 43q-16-20-7-47Z"/></g><path d="M23 52l8-11l5 10l10-7l4 13M66 59l8-11l6 10l10-7l4 13" fill="#4a9847"/></svg>
